HIERARCHY
ROOT Hips
{
  OFFSET 42.2271 101.075 102.642
  CHANNELS 6 Xposition Yposition Zposition Zrotation Xrotation Yrotation
  JOINT RightUpLeg
  {
    OFFSET -8.9458 -8.66707 0.101652
    CHANNELS 3 Zrotation Xrotation Yrotation
    JOINT RightLeg
    {
      OFFSET 0 -44.4227 1.3727
      CHANNELS 3 Zrotation Xrotation Yrotation
      JOINT RightFoot
      {
        OFFSET 0.253549 -42.0924 -1.46059
        CHANNELS 3 Zrotation Xrotation Yrotation
        JOINT RightToes
        {
          OFFSET 0.04 -4.41509 8.4991
          CHANNELS 3 Zrotation Xrotation Yrotation
          End Site
          {
            OFFSET -0.08 -0.137448 9.77979
          }
        }
      }
    }
  }
  JOINT Spine
  {
    OFFSET 0 11.8905 0
    CHANNELS 3 Zrotation Xrotation Yrotation
    JOINT Spine1
    {
      OFFSET 0 25.6574 0.127663
      CHANNELS 3 Zrotation Xrotation Yrotation
      JOINT HEad
      {
        OFFSET 0 8.73416 0.011341
        CHANNELS 3 Zrotation Xrotation Yrotation
        End Site
        {
          OFFSET -0.29 12.7742 2.51395
        }
      }
      JOINT LeftShoulder1
      {
        OFFSET 8.99 -0.362252 -0.22
        CHANNELS 3 Zrotation Xrotation Yrotation
        JOINT LeftArm
        {
          OFFSET 10.2827 -0.00338 0.322123
          CHANNELS 3 Zrotation Xrotation Yrotation
          JOINT LeftForeArm
          {
            OFFSET 32.7669 0.099144 -1.42434
            CHANNELS 3 Zrotation Xrotation Yrotation
            JOINT LeftHand
            {
              OFFSET 27.5643 0.085362 1.02216
              CHANNELS 3 Zrotation Xrotation Yrotation
              End Site
              {
                OFFSET 16.7443 -0.6 1.50291
              }
            }
          }
        }
      }
      JOINT RightShoulder
      {
        OFFSET -8.99 -0.362252 -0.22
        CHANNELS 3 Zrotation Xrotation Yrotation
        JOINT RightArm
        {
          OFFSET -10.2827 -0.00338 0.322123
          CHANNELS 3 Zrotation Xrotation Yrotation
          JOINT RightForeArm
          {
            OFFSET -32.8971 0.099144 -1.42434
            CHANNELS 3 Zrotation Xrotation Yrotation
            JOINT RightHand
            {
              OFFSET -27.4921 0.085362 1.02216
              CHANNELS 3 Zrotation Xrotation Yrotation
              End Site
              {
                OFFSET -16.6312 -0.6 1.50291
              }
            }
          }
        }
      }
    }
  }
  JOINT LeftUpLeg
  {
    OFFSET 8.9458 -8.66707 0.101652
    CHANNELS 3 Zrotation Xrotation Yrotation
    JOINT LeftLeg
    {
      OFFSET 0 -44.4227 1.3727
      CHANNELS 3 Zrotation Xrotation Yrotation
      JOINT LeftFoot
      {
        OFFSET -0.253549 -42.0924 -1.46059
        CHANNELS 3 Zrotation Xrotation Yrotation
        JOINT LeftToes
        {
          OFFSET -0.04 -4.41509 8.4991
          CHANNELS 3 Zrotation Xrotation Yrotation
          End Site
          {
            OFFSET 0.08 -0.047448 9.77979
          }
        }
      }
    }
  }
}
MOTION
Frames:	10
Frame Time:	0.0166667
42.9493 103.247 -42.5217 -2.82364 -1.81613 176.737 -5.82582 -2.63157 -11.5541 -2.32496 45.7297 13.851 12.9109 7.36217 -1.38249 -44.1878 25.5313 54.0507 -1.86937 2.27243 -0.991228 -5.40151 -4.79021 -0.411268 6.61018 -1.46687 2.87727 5.49764e-016 2.48481e-017 -7.95139e-016 -75.6987 -32.4638 -17.6815 -23.4154 13.8904 -10.6745 0.368473 9.90896 -0.00117926 -2.85975 0.714641 8.48436 90.4121 -32.1443 -4.04907 17.9742 13.7205 9.41967 -0.369625 9.91382 0.00119886 -10.2791 -13.4673 -4.84924 -1.95557 16.9266 3.20762 1.21886 -6.20325 0.0806865 4.52547e-011 1.39246e-011 2.09121e-011 
42.9178 103.157 -43.1511 -2.88304 -1.46047 176.385 -6.05758 -4.54877 -10.4113 -3.09975 49.0417 12.2611 12.3837 5.51799 -1.13922 -43.5318 26.3894 51.585 -2.23987 2.25304 -1.02572 -5.84644 -4.25944 -0.412264 7.11823 -1.39498 3.25661 7.19818e-016 -8.07563e-017 -0 -75.8958 -32.9803 -18.1926 -22.7668 14.097 -11.6977 0.368473 9.90896 -0.00117926 -2.69089 0.722949 8.32627 90.1859 -31.7295 -4.04719 18.3226 13.8423 10.1381 -0.369625 9.91382 0.00119886 -10.2837 -13.0047 -4.54664 -2.05073 17.561 3.42603 1.14563 -6.99998 0.0902078 4.5253e-011 1.39245e-011 2.0909e-011 
42.8842 103.087 -43.7631 -2.91903 -1.08795 176.093 -6.26889 -6.42362 -9.44782 -3.48993 51.9407 10.0847 11.4839 3.02186 -0.823232 -41.542 26.8404 48.2003 -2.56048 2.23302 -1.06765 -6.26892 -3.73407 -0.411023 7.56239 -1.29275 3.59207 5.9946e-016 4.96962e-017 -7.95139e-016 -76.2232 -33.4215 -18.7009 -22.1369 14.2596 -12.5641 0.368473 9.90896 -0.00117926 -2.48978 0.725938 8.04689 89.8261 -31.1701 -4.1377 18.8142 13.9997 11.0257 -0.369625 9.91382 0.00119886 -10.2857 -12.465 -4.27913 -2.12548 18.0732 3.54595 1.07671 -7.75944 0.0974009 4.52543e-011 1.39249e-011 2.09082e-011 
42.8429 103.032 -44.3685 -2.92196 -0.7053 175.957 -6.5347 -8.14373 -8.72331 -3.59884 54.1446 8.82133 10.3302 0.134433 -0.513487 -38.964 27.3784 43.3647 -2.81477 2.20357 -1.12468 -6.67532 -3.21578 -0.408469 7.81481 -1.13478 3.69185 1.98785e-016 -9.93923e-017 -0 -76.725 -33.7018 -19.2747 -21.525 14.3591 -13.1651 0.368473 9.90896 -0.00117926 -2.1432 0.727979 7.56151 89.2128 -30.4242 -4.36826 19.4955 14.1859 12.0145 -0.369625 9.91382 0.00119886 -10.3403 -11.8786 -4.00202 -2.06175 18.549 3.36156 0.95897 -8.51833 0.100341 4.52537e-011 1.3924e-011 2.09114e-011 
42.7865 102.978 -44.964 -2.89929 -0.336691 175.864 -6.7686 -9.80513 -8.19427 -3.7115 55.7332 7.80297 9.12356 -2.72078 -0.24086 -33.27 26.6441 35.9706 -3.04424 2.17742 -1.16659 -6.98222 -2.77226 -0.401932 7.96206 -0.985898 3.75793 -1.74558e-015 -9.93923e-017 1.59028e-015 -77.349 -33.8757 -19.7696 -20.997 14.4228 -13.6006 0.368473 9.90896 -0.00117926 -1.82703 0.724638 7.05367 88.4829 -29.6193 -4.73288 20.2544 14.4045 13.1205 -0.369625 9.91382 0.00119886 -10.4237 -11.2983 -3.70024 -1.91749 18.9967 3.09799 0.853116 -9.22052 0.102232 4.52539e-011 1.39243e-011 2.09106e-011 
42.6988 102.896 -45.5507 -2.86226 -0.00572682 175.694 -6.89038 -11.5025 -7.93328 -4.24645 56.6777 6.91954 8.12528 -4.92064 -0.0783454 -22.9102 22.1686 25.0217 -3.30793 2.17206 -1.1499 -7.06846 -2.49752 -0.386369 8.04616 -0.911294 3.99128 -4.78326e-016 0 7.95139e-016 -78.0899 -34.0026 -20.0441 -20.6268 14.4693 -13.9342 0.368473 9.90896 -0.00117926 -1.75714 0.710374 6.74482 87.7401 -28.8629 -5.29959 21.014 14.6699 14.3893 -0.369625 9.91382 0.00119886 -10.5555 -10.8136 -3.29304 -1.68832 19.5035 2.92831 0.795535 -9.82544 0.105108 4.5258e-011 1.39247e-011 2.09074e-011 
42.6014 102.823 -46.1265 -2.7815 0.278704 175.565 -6.92534 -13.1355 -7.66084 -4.59378 56.9916 5.79563 7.18423 -6.80297 0.0229527 -11.7848 14.1247 12.6106 -3.53644 2.16448 -1.12206 -7.05369 -2.31431 -0.369766 8.07012 -0.884549 4.20288 1.00635e-015 -9.93923e-017 -7.95139e-016 -78.8493 -33.9901 -20.159 -20.379 14.4998 -14.1685 0.368473 9.90896 -0.00117926 -1.70065 0.693107 6.4366 86.9604 -28.1697 -5.89505 21.7124 14.941 15.6652 -0.369625 9.91382 0.00119886 -10.6605 -10.3443 -2.93179 -1.46786 19.9189 2.81087 0.806576 -10.3232 0.110617 4.52589e-011 1.39246e-011 2.0909e-011 
42.5119 102.799 -46.6907 -2.61193 0.484103 175.583 -6.80929 -14.6391 -7.02825 -4.07039 56.6171 3.6711 6.18071 -8.51208 0.0816923 -1.46902 3.0276 -2.11485 -3.65541 2.1311 -1.12216 -7.01456 -2.18404 -0.359878 8.02483 -0.903362 4.22995 -2.08724e-015 9.93923e-017 -1.59028e-015 -79.5297 -33.7347 -20.1428 -20.2284 14.5143 -14.2989 0.368473 9.90896 -0.00117926 -1.44341 0.680572 5.95986 86.0911 -27.621 -6.37032 22.2507 15.1935 16.824 -0.369625 9.91382 0.00119886 -10.6395 -9.82872 -2.80157 -1.37927 20.0634 2.79432 0.952877 -10.6598 0.122832 4.5259e-011 1.39248e-011 2.09098e-011 
42.4269 102.79 -47.2398 -2.41852 0.65822 175.663 -6.60513 -16.0112 -6.28671 -3.35014 55.6581 1.63985 5.31558 -10.0056 0.11253 4.12645 -7.97769 -15.7898 -3.73879 2.09124 -1.13174 -6.95854 -2.08472 -0.352381 7.98983 -0.960582 4.19473 1.17407e-015 0 -0 -80.1359 -33.323 -19.96 -20.2169 14.5336 -14.4104 0.368473 9.90896 -0.00117926 -1.14496 0.667635 5.44847 85.275 -27.1311 -6.74213 22.6909 15.4109 17.8103 -0.369625 9.91382 0.00119886 -10.5697 -9.30474 -2.71848 -1.33405 20.1116 2.78176 1.13214 -10.9272 0.136539 4.52551e-011 1.39248e-011 2.09106e-011 
42.3489 102.764 -47.767 -2.26041 0.843024 175.75 -6.38946 -17.2273 -5.59049 -2.78112 54.2551 0.576129 4.80958 -11.3614 0.139547 6.51198 -15.9699 -24.8314 -3.8622 2.06389 -1.14007 -6.91576 -1.97365 -0.344205 8.04604 -1.07733 4.18569 -1.77974e-015 1.2424e-016 -7.95139e-016 -80.6556 -32.7984 -19.5756 -20.3923 14.5895 -14.6352 0.368473 9.90896 -0.00117926 -0.934241 0.647926 4.97299 84.6878 -26.644 -6.95194 23.0483 15.5746 18.5368 -0.369625 9.91382 0.00119886 -10.5141 -8.80704 -2.51586 -1.26829 20.2292 2.64839 1.26026 -11.2419 0.148354 4.52556e-011 1.39245e-011 2.09082e-011 
